<?xml version="1.0" encoding="UTF-8"?>
<svg width="54px" height="33px" viewBox="0 0 54 33" version="1.1" xmlns="http://www.w3.org/2000/svg" xmlns:xlink="http://www.w3.org/1999/xlink">
    <!-- Generator: Sketch 50.2 (55047) - http://www.bohemiancoding.com/sketch -->
    <title>id-card</title>
    <desc>Created with Sketch.</desc>
    <defs></defs>
    <g id="MAIN" stroke="none" stroke-width="1" fill="none" fill-rule="evenodd">
        <g id="Index" transform="translate(-150.000000, -225.000000)">
            <g id="Header" transform="translate(79.000000, 138.000000)">
                <g id="id-card" transform="translate(71.000000, 87.000000)">
                    <path d="M53.6923077,29.1842413 C53.6923077,31.2882506 52.0044578,33 49.9298246,33 L6.99325236,33 C4.91861916,33 3.23076923,31.2882506 3.23076923,29.1842413 L3.23076923,7.27729717 C3.23076923,5.17328782 4.91861916,3.46153846 6.99325236,3.46153846 L15.6248313,3.46153846 C16.0409619,3.46153846 18.1301582,3.46153846 18.5462888,3.46153846 L49.9298246,3.46153846 C52.0044578,3.46153846 53.6923077,5.17328782 53.6923077,7.27729717 L53.6923077,29.1842413 Z" id="id-card-path" fill="#96CFFE"></path>
                    <path d="M50.4615385,25.7227028 C50.4615385,27.8267122 48.7736885,29.5384615 46.6990553,29.5384615 L3.76248313,29.5384615 C1.68784993,29.5384615 -7.10542736e-14,27.8267122 -7.10542736e-14,25.7227028 L-7.10542736e-14,3.81575871 C-7.10542736e-14,1.71174936 1.68784993,0 3.76248313,0 L12.3940621,0 C12.8101927,0 13.1465587,0.34189198 13.1465587,0.763151742 C13.1465587,1.1844115 12.8101927,1.52630348 12.3940621,1.52630348 L3.76248313,1.52630348 C2.51785371,1.52630348 1.50499325,2.55350573 1.50499325,3.81575871 L1.50499325,25.7227028 C1.50499325,26.9849558 2.51785371,28.0121581 3.76248313,28.0121581 L46.6990553,28.0121581 C47.9436848,28.0121581 48.9565452,26.9849558 48.9565452,25.7227028 L48.9565452,3.81575871 C48.9565452,2.55350573 47.9436848,1.52630348 46.6990553,1.52630348 L15.3155196,1.52630348 C14.8993889,1.52630348 14.5630229,1.1844115 14.5630229,0.763151742 C14.5630229,0.34189198 14.8993889,0 15.3155196,0 L46.6990553,0 C48.7736885,0 50.4615385,1.71174936 50.4615385,3.81575871 L50.4615385,25.7227028 Z M8.67584345,14.2754267 C8.25971282,14.2754267 7.92334683,14.6173187 7.92334683,15.0385784 C7.92334683,15.4598382 8.25971282,15.8017302 8.67584345,15.8017302 L9.42834008,15.8017302 C9.84447072,15.8017302 10.1808367,15.4598382 10.1808367,15.0385784 C10.1808367,14.6173187 9.84447072,14.2754267 9.42834008,14.2754267 L8.67584345,14.2754267 Z M12.4383266,14.2754267 C12.022196,14.2754267 11.68583,14.6173187 11.68583,15.0385784 C11.68583,15.4598382 12.022196,15.8017302 12.4383266,15.8017302 L13.1908232,15.8017302 C13.6069538,15.8017302 13.9433198,15.4598382 13.9433198,15.0385784 C13.9433198,14.6173187 13.6069538,14.2754267 13.1908232,14.2754267 L12.4383266,14.2754267 Z M16.2008097,14.2754267 C15.7846791,14.2754267 15.4483131,13.9335347 15.4483131,13.512275 L15.4483131,12.7491232 C15.4483131,11.0656105 14.0983341,9.69651625 12.4383266,9.69651625 L9.42834008,9.69651625 C7.76833252,9.69651625 6.41835358,11.0656105 6.41835358,12.7491232 L6.41835358,13.512275 C6.41835358,13.9335347 6.08198758,14.2754267 5.66585695,14.2754267 L5.66585695,15.8017302 C6.08198758,15.8017302 6.41835358,16.1436222 6.41835358,16.5648819 C6.41835358,17.8851344 7.08506559,19.2633865 7.09259055,19.2771232 C7.87518704,20.865242 8.56597895,21.9069441 10.9333333,21.9069441 C13.3006877,21.9069441 13.9914796,20.865242 14.7748286,19.2763601 C14.7816011,19.2633865 15.4483131,17.8851344 15.4483131,16.5648819 C15.4483131,16.1436222 15.7846791,15.8017302 16.2008097,15.8017302 L16.2008097,14.2754267 Z M16.9533063,12.954411 C17.4032993,13.2184615 17.705803,13.7114576 17.705803,14.2754267 L17.705803,15.8017302 C17.705803,16.3771466 17.3897544,16.8800636 16.9247115,17.1395352 C16.7809846,18.6063128 16.1518974,19.8975656 16.1217976,19.9586177 C15.4392831,21.3422118 14.4083628,23.4332476 10.9333333,23.4332476 C7.45830391,23.4332476 6.42738354,21.3422118 5.7448691,19.9586177 C5.71476923,19.8975656 5.08568205,18.6063128 4.9419552,17.1395352 C4.47691228,16.8800636 4.1608637,16.3771466 4.1608637,15.8017302 L4.1608637,14.2754267 C4.1608637,13.7114576 4.46336734,13.2184615 4.91336032,12.954411 L4.91336032,12.7491232 C4.91336032,10.2238541 6.93832874,8.17021277 9.42834008,8.17021277 L12.4383266,8.17021277 C14.9283379,8.17021277 16.9533063,10.2238541 16.9533063,12.7491232 L16.9533063,12.954411 Z M29.1703104,20.3806406 C28.7541798,20.3806406 28.4178138,20.7225326 28.4178138,21.1437924 C28.4178138,21.5650521 28.7541798,21.9069441 29.1703104,21.9069441 L32.1802969,21.9069441 C32.5964275,21.9069441 32.9327935,21.5650521 32.9327935,21.1437924 C32.9327935,20.7225326 32.5964275,20.3806406 32.1802969,20.3806406 L29.1703104,20.3806406 Z M35.1902834,21.9069441 L42.7152497,21.9069441 C43.1313803,21.9069441 43.4677463,21.5650521 43.4677463,21.1437924 C43.4677463,20.7225326 43.1313803,20.3806406 42.7152497,20.3806406 L35.1902834,20.3806406 C34.7741528,20.3806406 34.4377868,20.7225326 34.4377868,21.1437924 C34.4377868,21.5650521 34.7741528,21.9069441 35.1902834,21.9069441 Z M37.4477733,16.5648819 C37.4477733,16.1436222 37.1114073,15.8017302 36.6952767,15.8017302 L29.1703104,15.8017302 C28.7541798,15.8017302 28.4178138,16.1436222 28.4178138,16.5648819 C28.4178138,16.9861417 28.7541798,17.3280337 29.1703104,17.3280337 L36.6952767,17.3280337 C37.1114073,17.3280337 37.4477733,16.9861417 37.4477733,16.5648819 Z M44.9727395,16.5648819 C44.9727395,16.1436222 44.6363735,15.8017302 44.2202429,15.8017302 L39.7052632,15.8017302 C39.2891325,15.8017302 38.9527665,16.1436222 38.9527665,16.5648819 C38.9527665,16.9861417 39.2891325,17.3280337 39.7052632,17.3280337 L44.2202429,17.3280337 C44.6363735,17.3280337 44.9727395,16.9861417 44.9727395,16.5648819 Z M39.7052632,9.69651625 L29.1703104,9.69651625 C28.7541798,9.69651625 28.4178138,10.0384082 28.4178138,10.459668 C28.4178138,10.8809278 28.7541798,11.2228197 29.1703104,11.2228197 L39.7052632,11.2228197 C40.1213938,11.2228197 40.4577598,10.8809278 40.4577598,10.459668 C40.4577598,10.0384082 40.1213938,9.69651625 39.7052632,9.69651625 Z M22.2065416,10.4876969 L22.2065416,21.0226497 C22.2065416,21.4387803 22.5484335,21.7751463 22.9696933,21.7751463 C23.3909531,21.7751463 23.732845,21.4387803 23.732845,21.0226497 L23.732845,10.4876969 C23.732845,10.0715663 23.3909531,9.7352003 22.9696933,9.7352003 C22.5484335,9.7352003 22.2065416,10.0715663 22.2065416,10.4876969 Z" fill="#293D69" fill-rule="nonzero"></path>
                </g>
            </g>
        </g>
    </g>
</svg>